<svg width="98" height="98" viewBox="0 0 98 98" fill="none" xmlns="http://www.w3.org/2000/svg">
<circle opacity="0.3" cx="49" cy="49" r="49" fill="#A4A29B"/>
<path fill-rule="evenodd" clip-rule="evenodd" d="M22 75.4042L27.0873 60.4799C24.8445 56.6392 23.6355 52.2597 23.6355 47.7143C23.6355 33.529 35.3474 22 49.7593 22L50.2013 22.0035C64.4139 22.2309 75.8935 33.6726 75.8935 47.7143C75.8935 61.8978 64.1808 73.4286 49.7697 73.4286C45.4748 73.4286 41.3362 72.4062 37.6335 70.4859L22 75.4042ZM70.6677 47.7143C70.6677 36.3717 61.2953 27.1429 49.7697 27.1429L49.4142 27.1456C38.0473 27.3276 28.8613 36.4826 28.8613 47.7143C28.8613 52.2143 30.335 56.3851 32.8407 59.7717L30.2357 67.414L38.2703 64.8863C41.5757 67.0411 45.5185 68.2857 49.7697 68.2857C61.2953 68.2857 70.6677 59.0569 70.6677 47.7143Z" fill="white"/>
<path d="M49.7697 27.1431H49.7593C38.2338 27.1431 28.8613 36.3694 28.8613 47.7145C28.8613 52.2145 30.3349 56.3854 32.8407 59.7719L30.2357 67.4142L38.2703 64.8865C41.5757 67.0414 45.5185 68.2859 49.7697 68.2859C61.2952 68.2859 70.6677 59.0571 70.6677 47.7145C70.6677 36.3719 61.2952 27.1431 49.7697 27.1431Z" fill="white"/>
<path fill-rule="evenodd" clip-rule="evenodd" d="M49.7593 27.1431H49.7697C61.2952 27.1431 70.6677 36.3719 70.6677 47.7145C70.6677 59.0571 61.2952 68.2859 49.7697 68.2859C45.5185 68.2859 41.5757 67.0414 38.2703 64.8865L30.2357 67.4142L32.8407 59.7719C30.3349 56.3854 28.8613 52.2145 28.8613 47.7145C28.8613 36.3694 38.2338 27.1431 49.7593 27.1431ZM57.8305 59.0956C59.427 58.7562 61.4285 57.5939 61.9328 56.1925C62.4371 54.7885 62.4371 53.5928 62.2907 53.3382C62.1726 53.1362 61.8932 53.0039 61.4761 52.8062C61.3676 52.7548 61.2496 52.6989 61.1228 52.6362C60.5088 52.3354 57.5222 50.8825 56.9578 50.6896C56.4039 50.4839 55.8761 50.5559 55.458 51.1371C55.3785 51.2466 55.2992 51.3564 55.2203 51.4656C54.7159 52.1637 54.2294 52.837 53.8249 53.2662C53.4565 53.6519 52.8556 53.7008 52.3513 53.4951C52.2963 53.4725 52.2333 53.4475 52.1627 53.4194C51.3642 53.102 49.5932 52.3981 47.4495 50.5199C45.6413 48.9359 44.4133 46.9636 44.0579 46.3722C43.709 45.7789 44.01 45.431 44.2881 45.1095C44.2933 45.1035 44.2984 45.0976 44.3035 45.0916C44.4829 44.8733 44.6569 44.6915 44.8318 44.5087C44.9576 44.3773 45.0838 44.2454 45.2128 44.0991C45.232 44.0773 45.2506 44.0563 45.2688 44.0357C45.5427 43.7258 45.7058 43.5412 45.8896 43.1554C46.0986 42.7568 45.9497 42.3454 45.8007 42.0419C45.6982 41.8294 45.0652 40.318 44.5218 39.0204C44.2893 38.4652 44.0732 37.9491 43.922 37.5908C43.517 36.6368 43.2087 36.6008 42.5947 36.5751C42.5759 36.5741 42.5569 36.5732 42.5377 36.5722C42.3436 36.5626 42.1298 36.5519 41.8944 36.5519C41.0949 36.5519 40.2614 36.7834 39.7571 37.2899C39.7395 37.3076 39.7211 37.326 39.702 37.3451C39.0569 37.9908 37.6197 39.4292 37.6197 42.2965C37.6197 45.1693 39.691 47.9496 40.0742 48.464C40.0848 48.4782 40.0941 48.4907 40.102 48.5014C40.125 48.5312 40.1685 48.5931 40.2318 48.6833C41.0143 49.7985 44.8257 55.2304 50.5092 57.5476C55.3117 59.5071 56.7383 59.3245 57.8305 59.0956Z" fill="#A4A29B"/>
<path fill-rule="evenodd" clip-rule="evenodd" d="M49.7593 27.1431H49.7697C61.2952 27.1431 70.6677 36.3719 70.6677 47.7145C70.6677 59.0571 61.2952 68.2859 49.7697 68.2859C45.5185 68.2859 41.5757 67.0414 38.2703 64.8865L30.2357 67.4142L32.8407 59.7719C30.3349 56.3854 28.8613 52.2145 28.8613 47.7145C28.8613 36.3694 38.2338 27.1431 49.7593 27.1431ZM57.8305 59.0956C59.427 58.7562 61.4285 57.5939 61.9328 56.1925C62.4371 54.7885 62.4371 53.5928 62.2907 53.3382C62.1726 53.1362 61.8932 53.0039 61.4761 52.8062C61.3676 52.7548 61.2496 52.6989 61.1228 52.6362C60.5088 52.3354 57.5222 50.8825 56.9578 50.6896C56.4039 50.4839 55.8761 50.5559 55.458 51.1371C55.3785 51.2466 55.2992 51.3564 55.2203 51.4656C54.7159 52.1637 54.2294 52.837 53.8249 53.2662C53.4565 53.6519 52.8556 53.7008 52.3513 53.4951C52.2963 53.4725 52.2333 53.4475 52.1627 53.4194C51.3642 53.102 49.5932 52.3981 47.4495 50.5199C45.6413 48.9359 44.4133 46.9636 44.0579 46.3722C43.709 45.7789 44.01 45.431 44.2881 45.1095C44.2933 45.1035 44.2984 45.0976 44.3035 45.0916C44.4829 44.8733 44.6569 44.6915 44.8318 44.5087C44.9576 44.3773 45.0838 44.2454 45.2128 44.0991C45.232 44.0773 45.2506 44.0563 45.2688 44.0357C45.5427 43.7258 45.7058 43.5412 45.8896 43.1554C46.0986 42.7568 45.9497 42.3454 45.8007 42.0419C45.6982 41.8294 45.0652 40.318 44.5218 39.0204C44.2893 38.4652 44.0732 37.9491 43.922 37.5908C43.517 36.6368 43.2087 36.6008 42.5947 36.5751C42.5759 36.5741 42.5569 36.5732 42.5377 36.5722C42.3436 36.5626 42.1298 36.5519 41.8944 36.5519C41.0949 36.5519 40.2614 36.7834 39.7571 37.2899C39.7395 37.3076 39.7211 37.326 39.702 37.3451C39.0569 37.9908 37.6197 39.4292 37.6197 42.2965C37.6197 45.1693 39.691 47.9496 40.0742 48.464C40.0848 48.4782 40.0941 48.4907 40.102 48.5014C40.125 48.5312 40.1685 48.5931 40.2318 48.6833C41.0143 49.7985 44.8257 55.2304 50.5092 57.5476C55.3117 59.5071 56.7383 59.3245 57.8305 59.0956Z" fill="#2CB641"/>
</svg>
