<svg width="50" height="50" viewBox="0 0 50 50" fill="none" xmlns="http://www.w3.org/2000/svg">
<circle cx="25" cy="25" r="24" transform="rotate(90 25 25)" stroke="#222222"/>
<path d="M13.8848 17.625C13.8848 18.0449 14.2266 18.3867 14.6367 18.3867H17.6738L19.1387 28.416C19.334 29.7539 20.0469 30.584 21.4043 30.584H32.1758C32.5664 30.584 32.9082 30.2715 32.9082 29.8418C32.9082 29.4121 32.5664 29.0996 32.1758 29.0996H21.5898C21.082 29.0996 20.7793 28.7578 20.7012 28.2305L20.5547 27.2637H32.2148C33.5918 27.2637 34.2949 26.4238 34.5 25.0664L35.2129 20.2715C35.2324 20.1445 35.252 19.998 35.252 19.9102C35.252 19.4316 34.9102 19.1094 34.3535 19.1094H19.373L19.1973 17.9961C19.0996 17.2441 18.8262 16.873 17.8496 16.873H14.6367C14.2266 16.873 13.8848 17.2148 13.8848 17.625ZM20.6035 33.582C20.6035 34.4414 21.2871 35.125 22.1465 35.125C22.9961 35.125 23.6797 34.4414 23.6797 33.582C23.6797 32.7324 22.9961 32.0488 22.1465 32.0488C21.2871 32.0488 20.6035 32.7324 20.6035 33.582ZM29.207 33.582C29.207 34.4414 29.9004 35.125 30.75 35.125C31.6094 35.125 32.293 34.4414 32.293 33.582C32.293 32.7324 31.6094 32.0488 30.75 32.0488C29.9004 32.0488 29.207 32.7324 29.207 33.582Z" fill="#0A0A0A"/>
</svg>
