<svg width="48" height="48" viewBox="0 0 48 48" fill="none" xmlns="http://www.w3.org/2000/svg">
<g clip-path="url(#clip0)">
<circle cx="24" cy="24" r="24" transform="rotate(90 24 24)" stroke="#222222"/>
<path d="M12.8848 16.625C12.8848 17.0449 13.2266 17.3867 13.6367 17.3867H16.6738L18.1387 27.416C18.334 28.7539 19.0469 29.584 20.4043 29.584H31.1758C31.5664 29.584 31.9082 29.2715 31.9082 28.8418C31.9082 28.4121 31.5664 28.0996 31.1758 28.0996H20.5898C20.082 28.0996 19.7793 27.7578 19.7012 27.2305L19.5547 26.2637H31.2148C32.5918 26.2637 33.2949 25.4238 33.5 24.0664L34.2129 19.2715C34.2324 19.1445 34.252 18.998 34.252 18.9102C34.252 18.4316 33.9102 18.1094 33.3535 18.1094H18.373L18.1973 16.9961C18.0996 16.2441 17.8262 15.873 16.8496 15.873H13.6367C13.2266 15.873 12.8848 16.2148 12.8848 16.625ZM19.6035 32.582C19.6035 33.4414 20.2871 34.125 21.1465 34.125C21.9961 34.125 22.6797 33.4414 22.6797 32.582C22.6797 31.7324 21.9961 31.0488 21.1465 31.0488C20.2871 31.0488 19.6035 31.7324 19.6035 32.582ZM28.207 32.582C28.207 33.4414 28.9004 34.125 29.75 34.125C30.6094 34.125 31.293 33.4414 31.293 32.582C31.293 31.7324 30.6094 31.0488 29.75 31.0488C28.9004 31.0488 28.207 31.7324 28.207 32.582Z" fill="#0A0A0A"/>
</g>
<defs>
<clipPath id="clip0">
<rect width="48" height="48" fill="white"/>
</clipPath>
</defs>
</svg>
