<svg width="16" height="15" viewBox="0 0 16 15" fill="none" xmlns="http://www.w3.org/2000/svg">
<path d="M1.04688 13.5898C0.851562 13.7949 0.841797 14.1172 1.04688 14.3125C1.25195 14.5078 1.56445 14.5078 1.76953 14.3125L7.99023 8.08203L14.2207 14.3125C14.416 14.5078 14.748 14.5176 14.9434 14.3125C15.1387 14.1074 15.1387 13.7949 14.9434 13.5898L8.71289 7.36914L14.9434 1.13867C15.1387 0.943359 15.1484 0.611328 14.9434 0.416016C14.7383 0.220703 14.416 0.220703 14.2207 0.416016L7.99023 6.64648L1.76953 0.416016C1.56445 0.220703 1.24219 0.210938 1.04688 0.416016C0.851562 0.621094 0.851562 0.943359 1.04688 1.13867L7.27734 7.36914L1.04688 13.5898Z" fill="white"/>
</svg>
