<svg width="21" height="21" viewBox="0 0 21 21" fill="none" xmlns="http://www.w3.org/2000/svg">
<path d="M10.5625 20.2422C16.002 20.2422 20.4648 15.7793 20.4648 10.3398C20.4648 4.89062 16.002 0.4375 10.5527 0.4375C5.11328 0.4375 0.650391 4.89062 0.650391 10.3398C0.650391 15.7793 5.11328 20.2422 10.5625 20.2422ZM10.582 7.64453C9.81055 7.64453 9.15625 6.99023 9.15625 6.22852C9.15625 5.41797 9.81055 4.7832 10.582 4.7832C11.3633 4.7832 11.998 5.41797 11.998 6.22852C11.998 6.99023 11.3633 7.64453 10.582 7.64453ZM8.88281 15.1934C8.36523 15.1934 7.96484 14.8223 7.96484 14.2852C7.96484 13.7871 8.36523 13.3965 8.88281 13.3965H9.86914V10.584H9.05859C8.54102 10.584 8.14062 10.2129 8.14062 9.68555C8.14062 9.1875 8.54102 8.78711 9.05859 8.78711H10.875C11.5488 8.78711 11.9004 9.24609 11.9004 9.95898V13.3965H12.5938C13.1113 13.3965 13.5215 13.7871 13.5215 14.2852C13.5215 14.8223 13.1113 15.1934 12.5938 15.1934H8.88281Z" fill="#222222"/>
</svg>
