<svg width="17" height="17" viewBox="0 0 17 17" fill="none" xmlns="http://www.w3.org/2000/svg">
<path fill-rule="evenodd" clip-rule="evenodd" d="M11.9691 0.0511088C10.4098 -0.0187206 6.54748 -0.0153308 4.98674 0.0511088C3.61528 0.112803 2.40553 0.430764 1.43024 1.36701C-0.0283067 2.7672 -0.0148525 4.60278 0.00410401 7.18901C0.00633157 7.49292 0.00863509 7.80719 0.00863509 8.13233C0.00863509 8.43665 0.00693727 8.73074 0.00529543 9.01514C-0.0101369 11.6883 -0.0206236 13.5048 1.43024 14.8976C2.89147 16.2998 4.82464 16.2859 7.48825 16.267C7.80739 16.2647 8.13702 16.2624 8.47757 16.2624H8.52356C11.7537 16.2624 12.8756 16.2624 14.0249 15.8352C15.5948 15.2502 16.7799 13.9031 16.8957 11.4835C16.9691 9.98586 16.9648 6.2788 16.8957 4.78052C16.7558 1.92429 15.1591 0.192123 11.9691 0.0511088ZM14.4373 13.8625C13.4533 14.8071 12.1182 14.8041 9.23464 14.7977C8.98712 14.7972 8.72819 14.7966 8.45708 14.7966L7.97204 14.7968C4.79348 14.7991 3.46139 14.8 2.47686 13.8523C1.45261 12.8737 1.46955 11.3848 1.49412 9.22383C1.49811 8.8742 1.50228 8.50698 1.50228 8.12148C1.50228 7.79458 1.49923 7.47565 1.49626 7.16567C1.46527 3.92399 1.44362 1.6614 5.01782 1.48566L5.05835 1.48429C5.92603 1.45485 6.21674 1.44498 8.4472 1.44498L8.47898 1.46532C8.80146 1.46532 9.11797 1.46255 9.42731 1.45983C12.7281 1.43087 15.2103 1.40909 15.3724 4.8456C15.4126 5.70322 15.4218 5.96084 15.4218 8.13165C15.4217 8.32686 15.4219 8.51533 15.4222 8.69739C15.425 11.6402 15.4263 12.9086 14.4373 13.8625ZM12.9986 4.86419C13.5599 4.86419 14.0148 4.41867 14.0148 3.86909C14.0148 3.31951 13.5599 2.87398 12.9986 2.87398C12.4373 2.87398 11.9823 3.31951 11.9823 3.86909C11.9823 4.41867 12.4373 4.86419 12.9986 4.86419ZM4.23729 8.1356C4.23729 5.88966 6.13299 4.0678 8.47458 4.0678C10.8141 4.0678 12.7119 5.88767 12.7119 8.1356C12.7119 10.3815 10.8162 12.2034 8.47458 12.2034C6.13506 12.2034 4.23729 10.3836 4.23729 8.1356ZM5.72426 8.1356C5.72426 9.59414 6.95458 10.7759 8.47458 10.7759C9.99459 10.7759 11.2255 9.59414 11.2249 8.1356C11.2249 6.67706 9.9939 5.49529 8.47458 5.49529C6.95527 5.49529 5.72426 6.67706 5.72426 8.1356Z" fill="#0A0A0A"/>
</svg>
