<svg width="98" height="98" viewBox="0 0 98 98" fill="none" xmlns="http://www.w3.org/2000/svg">
<circle opacity="0.3" cx="49" cy="49" r="49" fill="#999999"/>
<path d="M48.9532 24.0049C35.4683 23.739 24.3098 34.4325 24.002 47.9165C24.0371 54.7803 27.0764 61.2846 32.319 65.715V72.8677C32.319 73.4419 32.7845 73.9074 33.3587 73.9074C33.5535 73.9074 33.7444 73.8526 33.9097 73.7494L39.7046 70.1294C42.657 71.2587 45.7922 71.8345 48.9532 71.8281C62.4381 72.094 73.5966 61.4005 73.9045 47.9165C73.5966 34.4325 62.4381 23.739 48.9532 24.0049Z" fill="#A09F9B"/>
<path d="M48.9532 24.0049C35.4683 23.739 24.3098 34.4325 24.002 47.9165C24.0371 54.7803 27.0764 61.2846 32.319 65.715V72.8677C32.319 73.4419 32.7845 73.9074 33.3587 73.9074C33.5535 73.9074 33.7444 73.8526 33.9097 73.7494L39.7046 70.1294C42.657 71.2587 45.7922 71.8345 48.9532 71.8281C62.4381 72.094 73.5966 61.4005 73.9045 47.9165C73.5966 34.4325 62.4381 23.739 48.9532 24.0049Z" fill="#2F78FD"/>
<path d="M65.3793 41.0547C65.07 40.6401 64.5028 40.516 64.0486 40.7636L53.2364 46.6583L46.51 40.8904C46.0976 40.5368 45.4824 40.5603 45.0982 40.9445L32.6226 53.4201C32.2178 53.8273 32.2198 54.4856 32.6271 54.8904C32.9527 55.2141 33.452 55.2858 33.8556 55.0669L44.6678 49.1722L51.4005 54.9421C51.813 55.2957 52.4282 55.2723 52.8123 54.888L65.2879 42.4124C65.6515 42.0454 65.6904 41.4672 65.3793 41.0547Z" fill="#FAFAFA"/>
</svg>
