<svg width="98" height="98" viewBox="0 0 98 98" fill="none" xmlns="http://www.w3.org/2000/svg">
<circle opacity="0.3" cx="49" cy="49" r="49" fill="#999999"/>
<circle cx="49" cy="49" r="24" fill="#777672"/>
<circle cx="49" cy="49" r="24" fill="#2F93FD"/>
<path d="M36.1175 47.2567L57.4016 39.0998C58.3895 38.7451 59.2522 39.3394 58.9321 40.8241L58.934 40.8223L55.31 57.7925C55.0414 58.9957 54.3221 59.2882 53.3159 58.7214L47.7971 54.6786L45.1352 57.2275C44.8409 57.5201 44.5925 57.7669 44.0222 57.7669L44.4141 52.1845L54.6422 43C55.0874 42.6105 54.5429 42.3911 53.956 42.7788L41.3162 50.6888L35.8673 48.9993C34.6845 48.6263 34.6587 47.8236 36.1175 47.2567Z" fill="white"/>
</svg>
