<svg width="18" height="18" viewBox="0 0 18 18" fill="none" xmlns="http://www.w3.org/2000/svg">
<path d="M7.25195 14.3203C8.84375 14.3203 10.3184 13.7734 11.4902 12.8652L16.3535 17.748C16.4902 17.8848 16.6855 17.9629 16.8906 17.9629C17.3496 17.9629 17.6523 17.6113 17.6523 17.2012C17.6523 16.9961 17.584 16.8105 17.4375 16.6641L12.584 11.8008C13.5703 10.5996 14.166 9.07617 14.166 7.40625C14.166 3.60742 11.0508 0.492188 7.25195 0.492188C3.45312 0.492188 0.337891 3.60742 0.337891 7.40625C0.337891 11.2148 3.45312 14.3203 7.25195 14.3203ZM7.25195 13.3633C3.99023 13.3633 1.30469 10.6777 1.30469 7.40625C1.30469 4.14453 3.99023 1.45898 7.25195 1.45898C10.5137 1.45898 13.1992 4.14453 13.1992 7.40625C13.1992 10.6777 10.5137 13.3633 7.25195 13.3633ZM4.67383 8.09961H9.83008C10.2012 8.09961 10.5234 7.77734 10.5234 7.40625C10.5234 7.04492 10.2012 6.71289 9.83008 6.71289H4.67383C4.30273 6.71289 3.98047 7.04492 3.98047 7.40625C3.98047 7.77734 4.30273 8.09961 4.67383 8.09961Z" fill="white"/>
</svg>
