<svg width="40" height="40" viewBox="0 0 40 40" fill="none" xmlns="http://www.w3.org/2000/svg">
<path opacity="0.3" fill-rule="evenodd" clip-rule="evenodd" d="M0 20C0 8.95431 8.95431 0 20 0C31.0457 0 40 8.95431 40 20C40 31.0457 31.0457 40 20 40C8.95431 40 0 31.0457 0 20Z" fill="#222222"/>
<path d="M18.252 25.3203C19.8438 25.3203 21.3184 24.7734 22.4902 23.8652L27.3535 28.748C27.4902 28.8848 27.6855 28.9629 27.8906 28.9629C28.3496 28.9629 28.6523 28.6113 28.6523 28.2012C28.6523 27.9961 28.584 27.8105 28.4375 27.6641L23.584 22.8008C24.5703 21.5996 25.166 20.0762 25.166 18.4062C25.166 14.6074 22.0508 11.4922 18.252 11.4922C14.4531 11.4922 11.3379 14.6074 11.3379 18.4062C11.3379 22.2148 14.4531 25.3203 18.252 25.3203ZM18.252 24.3633C14.9902 24.3633 12.3047 21.6777 12.3047 18.4062C12.3047 15.1445 14.9902 12.459 18.252 12.459C21.5137 12.459 24.1992 15.1445 24.1992 18.4062C24.1992 21.6777 21.5137 24.3633 18.252 24.3633ZM19.0039 21.1016V19.0996H20.8301C21.2012 19.0996 21.5234 18.7773 21.5234 18.4062C21.5234 18.0449 21.2012 17.7129 20.8301 17.7129H19.0039V15.7207C19.0039 15.2812 18.6426 15.0078 18.252 15.0078C17.8613 15.0078 17.5 15.2812 17.5 15.7207V17.7129H15.6738C15.3027 17.7129 14.9805 18.0449 14.9805 18.4062C14.9805 18.7773 15.3027 19.0996 15.6738 19.0996H17.5V21.1016C17.5 21.541 17.8613 21.8047 18.252 21.8047C18.6426 21.8047 19.0039 21.541 19.0039 21.1016Z" fill="white"/>
</svg>
